<?xml version="1.0" encoding="UTF-8" standalone="no"?>
<!DOCTYPE svg PUBLIC "-//W3C//DTD SVG 1.1//EN" "http://www.w3.org/Graphics/SVG/1.1/DTD/svg11.dtd">
<svg version="1.1" xmlns="http://www.w3.org/2000/svg" xmlns:xlink="http://www.w3.org/1999/xlink" preserveAspectRatio="xMidYMid meet" viewBox="0 0 320 58" width="320" height="58"><defs><path d="M200.15 9.9C198.81 12.36 198.75 13.33 198.56 34.64C198.54 36.12 198.48 43.52 198.36 56.85L202.26 56.85L206.09 56.85C206.09 44.11 206.09 37.03 206.09 35.61C206.09 11.39 206.16 11.2 211.27 8.41C213.57 7.18 214.72 6.92 217.66 7.18C222.26 7.57 224.3 8.93 225.64 12.49C228.13 19.16 223.41 24.41 214.91 24.47C214.66 24.47 213.43 24.47 211.21 24.47L211.21 28.03L211.21 31.6C214.27 31.6 215.98 31.6 216.32 31.6C219.25 31.6 222.39 31.98 223.6 32.5C227.94 34.32 229.92 39.11 228.39 44.03C227.62 46.3 226.98 47.07 224.62 48.3C222.26 49.47 220.79 49.73 215.23 49.73C214.79 49.73 212.6 49.73 208.65 49.73L208.65 53.35L208.65 56.98C213.75 56.83 216.58 56.74 217.15 56.72C223.22 56.53 226.28 56.14 228.13 55.3C235.29 52.19 238.36 44.35 235.8 35.74C234.78 32.18 232.54 29.65 228.84 27.84C228.67 27.76 227.84 27.35 226.35 26.61C227.57 25.87 228.25 25.46 228.39 25.38C234.08 22.01 235.48 12.82 231.33 6.47C228.77 2.52 224.17 0.32 217.91 0.06C213.95 -0.13 212.1 0.12 209.67 1.16C205.97 2.65 202.13 6.21 200.15 9.9Z"  shape-rendering="auto" id="em6LHyf5u"></path><path d="M1.35 18.58C-1.66 30.11 0.45 41.63 6.78 48.63C11.76 54.13 18.66 56.85 27.86 56.85C28.16 56.85 29.65 56.85 32.33 56.85L32.33 53.29L32.33 49.73C29.72 49.73 28.28 49.73 27.99 49.73C19.04 49.73 14 46.81 10.48 39.5C8.5 35.48 8.37 34.7 8.37 28.68C8.37 22.66 8.5 21.88 10.48 17.87C14 10.55 19.04 7.64 27.99 7.64C28.28 7.64 29.72 7.64 32.33 7.64L32.33 4.07L32.33 0.51C29.38 0.55 27.74 0.57 27.41 0.58C24.66 0.58 20.96 0.97 19.17 1.42C10.29 3.62 3.58 10.1 1.35 18.58Z"  shape-rendering="auto" id="aMoDOm9kG"></path><path d="M111.55 15.67C111.55 17.48 111.29 17.93 110.2 18.13C109.25 18.26 108.35 19.36 107.33 21.69C107.23 21.92 106.74 23.06 105.86 25.12L108.74 25.12L111.55 25.12L111.55 40.99L111.55 56.85L115.06 56.85L118.57 56.85L118.57 40.99L118.57 25.12L123.05 25.12L127.52 25.12L127.52 21.56L127.52 18C124.83 18 123.34 18 123.05 18C118.96 18 118.57 17.87 118.57 16.7C118.57 12.23 122.28 8.61 127.71 7.9C127.91 7.86 128.91 7.71 130.71 7.44L130.71 4.01L130.71 0.51C129.49 0.55 128.8 0.57 128.67 0.58C127.52 0.58 125.41 0.97 124 1.42C116.47 3.82 111.55 9.45 111.55 15.67Z"  shape-rendering="auto" id="aKkaEhyo3"></path><path d="M130.01 25.12L133.52 25.12L137.1 25.12C137.1 31.61 137.1 35.21 137.1 35.94C137.1 45.13 137.29 47.2 138.31 49.47C140.23 53.68 144.32 56.01 150.96 56.66C151.23 56.68 152.57 56.81 154.99 57.05L154.99 53.48L154.99 49.92C153.03 49.69 151.95 49.56 151.73 49.53C147.9 49.08 145.6 47.72 144.77 45.45C144.38 44.55 144.13 39.63 144.13 34.45C144.13 33.82 144.13 30.72 144.13 25.12L149.56 25.12L154.99 25.12L154.99 21.56L154.99 18L149.56 18L144.13 18C144.13 15.86 144.13 14.67 144.13 14.44C144.13 12.49 143.87 10.87 143.62 10.87C143.36 10.87 140.17 14.05 136.53 18C135.66 18.95 133.48 21.32 130.01 25.12Z"  shape-rendering="auto" id="d60XJT1vE"></path><path d="M262.98 17.58L263.29 17.58L263.6 17.59L263.91 17.61L264.57 17.64L265.21 17.7L265.85 17.77L266.48 17.86L267.09 17.97L267.7 18.09L268.3 18.24L268.89 18.41L269.46 18.59L270.03 18.8L270.59 19.02L271.14 19.26L271.69 19.52L272.22 19.8L272.75 20.1L273.27 20.41L273.78 20.75L274.28 21.11L274.77 21.48L275.26 21.87L275.74 22.28L276.21 22.71L276.68 23.16L277.13 23.63L278.21 24.86L279.17 26.16L280 27.52L280.71 28.92L281.3 30.37L281.77 31.85L282.12 33.35L282.36 34.88L282.48 36.41L282.48 37.96L282.37 39.49L282.16 41.02L281.83 42.53L281.39 44.01L280.85 45.45L280.2 46.86L279.44 48.21L278.58 49.51L277.62 50.75L276.56 51.91L275.39 52.99L274.13 53.99L272.77 54.89L271.32 55.69L271.03 55.83L270.74 55.97L270.46 56.1L270.18 56.22L269.9 56.33L269.63 56.44L269.35 56.53L269.07 56.62L268.78 56.7L268.49 56.77L268.19 56.83L267.88 56.89L267.56 56.94L267.23 56.99L266.89 57.03L266.53 57.06L266.15 57.09L265.76 57.12L265.35 57.14L264.92 57.15L264.46 57.16L263.98 57.17L263.48 57.17L262.95 57.18L262.36 57.17L261.82 57.17L261.3 57.16L260.82 57.15L260.37 57.14L259.95 57.12L259.55 57.09L259.17 57.06L258.82 57.02L258.48 56.98L258.15 56.92L257.84 56.86L257.54 56.79L257.24 56.71L256.95 56.62L256.66 56.51L256.37 56.4L256.07 56.27L255.77 56.14L255.46 55.98L255.13 55.82L254.8 55.64L254.44 55.44L254.07 55.23L253.55 54.93L253.04 54.61L252.54 54.28L252.06 53.94L251.58 53.59L251.12 53.22L250.67 52.84L250.23 52.46L249.81 52.06L249.39 51.64L249 51.22L248.61 50.79L248.24 50.34L247.88 49.89L247.53 49.42L247.2 48.94L246.88 48.46L246.58 47.96L246.29 47.45L246.02 46.93L245.76 46.4L245.51 45.85L245.28 45.3L245.06 44.74L244.89 44.26L244.74 43.75L244.59 43.23L244.46 42.7L244.34 42.15L244.23 41.59L244.13 41.03L244.05 40.45L243.97 39.87L243.92 39.28L243.87 38.7L243.83 38.1L243.81 37.51L243.8 36.92L243.81 36.34L243.82 35.76L243.85 35.18L243.9 34.62L243.95 34.06L244.02 33.51L244.1 32.98L244.2 32.46L244.3 31.95L244.43 31.47L244.64 30.78L244.9 30.08L245.2 29.38L245.54 28.68L245.92 27.98L246.34 27.29L246.78 26.6L247.26 25.92L247.77 25.25L248.31 24.59L248.87 23.95L249.46 23.32L250.06 22.72L250.68 22.14L251.32 21.58L251.98 21.04L252.64 20.54L253.32 20.07L254 19.63L254.69 19.22L255.38 18.85L256.08 18.52L256.77 18.24L257.46 18L257.6 17.96L257.77 17.92L257.95 17.88L258.14 17.85L258.36 17.81L258.58 17.78L258.82 17.75L259.07 17.72L259.34 17.7L259.61 17.67L259.89 17.65L260.18 17.63L260.48 17.62L260.78 17.6L261.09 17.59L261.4 17.58L261.71 17.57L262.03 17.57L262.35 17.57L262.66 17.57L262.98 17.58ZM260.83 24.7L259.9 24.88L259 25.14L258.14 25.46L257.31 25.84L256.54 26.3L255.82 26.81L255.16 27.39L254.6 27.93L254.08 28.48L253.62 29.03L253.2 29.6L252.82 30.18L252.49 30.77L252.2 31.39L251.95 32.02L251.73 32.69L251.55 33.38L251.41 34.11L251.29 34.88L251.21 35.68L251.16 36.53L251.13 37.42L251.18 38.88L251.34 40.25L251.59 41.54L251.94 42.75L252.38 43.88L252.92 44.93L253.56 45.88L254.29 46.75L255.11 47.53L256.02 48.21L257.01 48.8L258.1 49.3L259.27 49.69L260.53 49.99L261.87 50.18L262.74 50.24L263.61 50.25L264.46 50.19L265.3 50.08L266.12 49.92L266.92 49.7L267.7 49.43L268.46 49.11L269.19 48.73L269.9 48.31L270.57 47.83L271.21 47.31L271.82 46.74L272.39 46.12L272.92 45.45L273.24 45.02L273.53 44.62L273.77 44.25L273.98 43.88L274.16 43.52L274.31 43.14L274.44 42.74L274.54 42.31L274.61 41.84L274.67 41.31L274.72 40.71L274.74 40.03L274.76 39.27L274.77 38.4L274.77 37.42L274.77 36.45L274.76 35.58L274.74 34.82L274.72 34.14L274.67 33.54L274.61 33.01L274.54 32.54L274.44 32.11L274.31 31.71L274.16 31.33L273.98 30.97L273.77 30.6L273.53 30.23L273.24 29.83L272.92 29.39L272.7 29.12L272.46 28.84L272.2 28.55L271.92 28.26L271.63 27.98L271.32 27.69L271.01 27.42L270.69 27.15L270.36 26.89L270.03 26.65L269.7 26.42L269.38 26.21L269.06 26.01L268.75 25.85L268.45 25.7L267.54 25.33L266.6 25.02L265.65 24.79L264.68 24.63L263.71 24.54L262.74 24.52L261.78 24.58L260.83 24.7Z"  shape-rendering="auto" id="gfa7WSqz"></path><path d="M40 46.3C40 47 40 50.52 40 56.85L43.83 56.85L47.66 56.85C47.66 48.54 47.66 43.92 47.66 42.99C47.66 29.2 47.66 29.07 49.2 27.26C50.67 25.51 51.05 25.44 57.18 25.25C57.61 25.23 59.76 25.15 63.63 24.99L63.63 21.49L63.63 18C59.92 18 57.85 18 57.44 18C53.92 18.06 50.15 18.45 48.81 18.9C41.34 21.62 40.06 25.57 40 46.3Z"  shape-rendering="auto" id="c1kBGUs3lk"></path><path d="M71.3 25.12C75.82 25.12 78.34 25.12 78.84 25.12C91.61 25.12 93.02 26.67 93.02 40.92C93.02 41.52 93.02 44.5 93.02 49.86C88.46 49.74 85.92 49.68 85.42 49.66C79.03 49.47 77.62 49.21 76.47 48.17C75.07 46.88 74.69 43.96 75.77 41.96C77.05 39.5 83.5 38.59 87.65 40.34C87.8 40.4 88.55 40.7 89.89 41.25L89.7 37.62L89.51 33.93C87.97 33.58 87.12 33.38 86.95 33.34C83.18 32.5 77.05 33.15 74.05 34.7C64.72 39.56 65.87 52.84 75.96 55.88C78.26 56.59 82.22 56.85 89.63 56.85C90.33 56.85 93.8 56.85 100.05 56.85C100.05 48.77 100.05 44.28 100.05 43.38C100.05 29.01 99.66 26.29 97.04 23.18C93.72 19.16 91.17 18.39 80.75 18.13C80.12 18.11 76.97 18.02 71.3 17.87L71.3 21.49L71.3 25.12Z"  shape-rendering="auto" id="a4CDTC0jbW"></path><path d="M164.12 22.14C162.27 24.21 162.01 24.86 162.01 28.1C162.01 34.7 164.7 37.36 174.28 40.27C182.52 42.86 184.89 45.32 181.76 48.17C180.61 49.21 179.2 49.4 171.21 49.6C170.6 49.61 167.53 49.68 162.01 49.79L162.01 53.42L162.01 56.98C168.07 56.83 171.44 56.74 172.11 56.72C183.1 56.53 185.78 55.75 188.46 52.12C190.25 49.73 190.57 44.09 189.17 41.05C187.82 38.27 185.84 37.1 177.35 34.19C170.45 31.86 168.91 30.75 169.17 28.42C169.49 25.77 171.66 25.12 180.73 25.12C181.27 25.12 183.98 25.12 188.85 25.12L188.85 21.56L188.85 18C183.59 18 180.68 18 180.09 18C174.22 18.06 170.45 18.39 168.72 18.97C167.32 19.49 165.21 20.91 164.12 22.14Z"  shape-rendering="auto" id="a3bmUQ3yyI"></path><path d="M294.64 34.25C294.79 34.41 295.53 35.18 296.87 36.58C295.46 38.1 294.67 38.94 294.51 39.11C291.32 42.54 289.27 47.2 288.76 52.45C288.73 52.74 288.58 54.21 288.31 56.85L291.83 56.85L295.34 56.85C295.61 54.64 295.76 53.41 295.79 53.16C296.3 48.63 298.92 43.58 301.86 41.57C303.84 40.21 304.16 40.14 305.75 40.99C309.59 42.99 312.78 49.21 312.78 54.71C312.78 54.86 312.78 55.57 312.78 56.85L316.36 56.85L320 56.85C319.77 54.29 319.64 52.86 319.62 52.58C319.11 47.46 317 42.54 313.87 39.11C313.71 38.94 312.92 38.1 311.5 36.58C313.07 34.87 313.95 33.92 314.12 33.73C317.32 30.17 318.98 26.48 319.55 21.69C319.58 21.44 319.73 20.21 320 18L316.49 18L313.04 18C312.58 20.33 312.32 21.62 312.27 21.88C311.5 26.22 309.97 28.81 306.58 31.4C304.48 33.02 304.28 33.09 302.69 32.11C299.62 30.3 296.94 26.03 296.11 21.88C296.06 21.62 295.8 20.33 295.34 18L291.83 18L288.31 18L288.76 21.36C290.81 28.01 292.76 32.31 294.64 34.25Z"  shape-rendering="auto" id="abbrr0td9"></path></defs><g><g><g><use xlink:href="#em6LHyf5u" opacity="1" fill="#ffffff" fill-opacity="1"></use><g><use xlink:href="#em6LHyf5u" opacity="1" fill-opacity="0" stroke="#ffffff" stroke-width="1" stroke-opacity="0"></use></g></g><g><use xlink:href="#aMoDOm9kG" opacity="1" fill="#ffffff" fill-opacity="1"></use><g><use xlink:href="#aMoDOm9kG" opacity="1" fill-opacity="0" stroke="#ffffff" stroke-width="1" stroke-opacity="0"></use></g></g><g><use xlink:href="#aKkaEhyo3" opacity="1" fill="#ffffff" fill-opacity="1"></use><g><use xlink:href="#aKkaEhyo3" opacity="1" fill-opacity="0" stroke="#ffffff" stroke-width="1" stroke-opacity="0"></use></g></g><g><use xlink:href="#d60XJT1vE" opacity="1" fill="#ffffff" fill-opacity="1"></use><g><use xlink:href="#d60XJT1vE" opacity="1" fill-opacity="0" stroke="#ffffff" stroke-width="1" stroke-opacity="0"></use></g></g><g><use xlink:href="#gfa7WSqz" opacity="1" fill="#ffffff" fill-opacity="1"></use><g><use xlink:href="#gfa7WSqz" opacity="1" fill-opacity="0" stroke="#ffffff" stroke-width="1" stroke-opacity="0"></use></g></g><g><use xlink:href="#c1kBGUs3lk" opacity="1" fill="#ffffff" fill-opacity="1"></use><g><use xlink:href="#c1kBGUs3lk" opacity="1" fill-opacity="0" stroke="#ffffff" stroke-width="1" stroke-opacity="0"></use></g></g><g><use xlink:href="#a4CDTC0jbW" opacity="1" fill="#ffffff" fill-opacity="1"></use><g><use xlink:href="#a4CDTC0jbW" opacity="1" fill-opacity="0" stroke="#ffffff" stroke-width="1" stroke-opacity="0"></use></g></g><g><use xlink:href="#a3bmUQ3yyI" opacity="1" fill="#ffffff" fill-opacity="1"></use><g><use xlink:href="#a3bmUQ3yyI" opacity="1" fill-opacity="0" stroke="#ffffff" stroke-width="1" stroke-opacity="0"></use></g></g><g><use xlink:href="#abbrr0td9" opacity="1" fill="#ffffff" fill-opacity="1"></use><g><use xlink:href="#abbrr0td9" opacity="1" fill-opacity="0" stroke="#ffffff" stroke-width="1" stroke-opacity="0"></use></g></g></g></g></svg>