<?xml version="1.0" encoding="UTF-8" standalone="no"?>
<!DOCTYPE svg PUBLIC "-//W3C//DTD SVG 1.1//EN" "http://www.w3.org/Graphics/SVG/1.1/DTD/svg11.dtd">
<svg version="1.1" xmlns="http://www.w3.org/2000/svg" xmlns:xlink="http://www.w3.org/1999/xlink" preserveAspectRatio="xMidYMid meet" viewBox="0 0 320 62" width="320" height="62"><defs><path d="M200.51 13.69C199.12 16.13 199.04 17.09 198.43 38.39C198.39 39.87 198.18 47.27 197.81 60.6L201.7 60.67L205.54 60.75C205.79 48.01 205.92 40.93 205.95 39.51C206.43 15.3 206.49 15.1 211.66 12.42C213.98 11.23 215.14 11 218.07 11.31C222.66 11.79 224.68 13.19 225.95 16.78C228.31 23.5 223.48 28.65 214.98 28.55C214.74 28.54 213.5 28.52 211.28 28.47L211.21 32.04L211.14 35.6C214.21 35.66 215.91 35.69 216.25 35.7C219.19 35.75 222.31 36.2 223.51 36.75C227.82 38.64 229.71 43.47 228.08 48.36C227.27 50.61 226.61 51.38 224.23 52.56C221.84 53.68 220.37 53.91 214.81 53.8C214.37 53.8 212.18 53.75 208.23 53.68L208.16 57.3L208.09 60.93C213.19 60.87 216.02 60.84 216.59 60.83C222.66 60.76 225.73 60.43 227.6 59.62C234.82 56.66 238.04 48.88 235.65 40.22C234.7 36.64 232.51 34.07 228.84 32.19C228.68 32.1 227.86 31.67 226.37 30.91C227.62 30.19 228.31 29.8 228.44 29.72C234.19 26.46 235.78 17.29 231.75 10.87C229.27 6.87 224.72 4.58 218.46 4.2C214.51 3.93 212.65 4.15 210.2 5.14C206.47 6.55 202.57 10.04 200.51 13.69Z" id="baxDNeKvv"></path><path d="M1.58 18.48C-1.65 29.95 0.23 41.51 6.42 48.63C11.29 54.23 18.14 57.08 27.33 57.26C27.63 57.27 29.12 57.3 31.81 57.35L31.87 53.79L31.94 50.23C29.34 50.18 27.89 50.15 27.6 50.14C18.66 49.97 13.67 46.96 10.3 39.57C8.4 35.52 8.29 34.74 8.4 28.72C8.52 22.7 8.66 21.92 10.72 17.95C14.38 10.7 19.48 7.88 28.42 8.06C28.71 8.07 30.16 8.09 32.77 8.14L32.84 4.58L32.91 1.02C29.95 1 28.32 0.99 27.99 0.99C25.24 0.94 21.53 1.25 19.73 1.67C10.81 3.7 3.98 10.04 1.58 18.48Z" id="a3hyRBBQ0s"></path><path d="M111.81 17.72C111.78 19.53 111.51 19.98 110.42 20.16C109.46 20.27 108.55 21.35 107.48 23.66C107.38 23.89 106.86 25.02 105.94 27.06L108.82 27.12L111.63 27.17L111.32 43.04L111.01 58.9L114.52 58.97L118.03 59.04L118.34 43.17L118.65 27.31L123.12 27.4L127.59 27.49L127.66 23.93L127.73 20.36C125.05 20.31 123.56 20.28 123.26 20.28C119.17 20.2 118.79 20.06 118.82 18.89C118.9 14.43 122.68 10.87 128.12 10.27C128.32 10.24 129.33 10.11 131.13 9.87L131.2 6.44L131.27 2.95C130.04 2.96 129.36 2.97 129.22 2.97C128.07 2.95 125.96 3.3 124.54 3.72C116.96 5.97 111.93 11.51 111.81 17.72Z" id="b3Vx3jGNmU"></path><path d="M130.09 27.53L133.6 27.6L137.18 27.67C137.05 34.16 136.98 37.77 136.96 38.49C136.78 47.68 136.94 49.76 137.91 52.04C139.75 56.29 143.79 58.7 150.42 59.48C150.69 59.51 152.03 59.66 154.44 59.94L154.5 56.38L154.57 52.82C152.62 52.55 151.54 52.4 151.32 52.37C147.5 51.84 145.23 50.44 144.44 48.15C144.08 47.24 143.92 42.31 144.02 37.13C144.03 36.51 144.09 33.4 144.2 27.81L149.63 27.92L155.06 28.02L155.13 24.46L155.2 20.9L149.77 20.8L144.34 20.69C144.38 18.55 144.41 17.37 144.41 17.13C144.45 15.19 144.22 13.56 143.97 13.56C143.71 13.55 140.46 16.66 136.74 20.54C135.85 21.47 133.63 23.8 130.09 27.53Z" id="aY4TOblo"></path><path d="M262.55 22.57L262.86 22.58L263.18 22.59L263.49 22.6L263.8 22.62L264.11 22.64L264.76 22.69L265.41 22.75L266.05 22.84L266.67 22.94L267.28 23.06L267.89 23.2L268.48 23.36L269.07 23.54L269.64 23.73L270.21 23.95L270.76 24.18L271.31 24.43L271.85 24.71L272.37 24.99L272.89 25.3L273.41 25.63L273.91 25.98L274.4 26.34L274.89 26.72L275.37 27.13L275.84 27.55L276.31 27.99L276.76 28.44L277.21 28.92L278.27 30.18L279.2 31.49L280 32.86L280.68 34.28L281.24 35.74L281.68 37.22L282.01 38.74L282.21 40.27L282.3 41.81L282.28 43.35L282.14 44.88L281.89 46.4L281.54 47.9L281.07 49.38L280.5 50.81L279.82 52.2L279.04 53.54L278.15 54.83L277.17 56.04L276.08 57.18L274.9 58.24L273.62 59.21L272.24 60.09L270.77 60.86L270.48 61L270.19 61.13L269.9 61.26L269.62 61.37L269.34 61.48L269.06 61.58L268.78 61.66L268.5 61.75L268.21 61.82L267.92 61.88L267.62 61.94L267.31 62L266.99 62.04L266.66 62.08L266.31 62.11L265.95 62.14L265.58 62.16L265.18 62.18L264.77 62.19L264.34 62.2L263.89 62.2L263.41 62.2L262.91 62.19L262.38 62.18L261.79 62.17L261.24 62.16L260.73 62.14L260.25 62.12L259.8 62.09L259.37 62.07L258.98 62.03L258.6 61.99L258.25 61.95L257.91 61.9L257.58 61.84L257.27 61.77L256.97 61.69L256.68 61.6L256.39 61.51L256.1 61.4L255.81 61.28L255.51 61.15L255.21 61L254.91 60.84L254.59 60.67L254.25 60.49L253.9 60.28L253.54 60.07L253.02 59.75L252.52 59.42L252.03 59.08L251.55 58.73L251.08 58.37L250.62 58L250.18 57.61L249.75 57.21L249.33 56.81L248.93 56.39L248.54 55.96L248.16 55.52L247.8 55.06L247.45 54.6L247.11 54.13L246.79 53.64L246.48 53.15L246.19 52.65L245.91 52.13L245.64 51.6L245.39 51.07L245.16 50.52L244.94 49.97L244.74 49.4L244.57 48.91L244.43 48.4L244.29 47.88L244.17 47.35L244.06 46.8L243.96 46.24L243.87 45.67L243.8 45.09L243.74 44.51L243.69 43.92L243.66 43.33L243.64 42.74L243.63 42.15L243.63 41.56L243.64 40.98L243.67 40.39L243.71 39.82L243.77 39.25L243.83 38.7L243.91 38.15L244 37.62L244.11 37.1L244.23 36.6L244.36 36.12L244.58 35.43L244.86 34.74L245.17 34.04L245.53 33.35L245.92 32.66L246.35 31.97L246.81 31.29L247.3 30.62L247.83 29.96L248.37 29.32L248.95 28.69L249.54 28.07L250.16 27.48L250.8 26.91L251.45 26.36L252.11 25.84L252.79 25.35L253.47 24.89L254.16 24.46L254.86 24.07L255.56 23.72L256.26 23.4L256.96 23.13L257.65 22.9L257.79 22.87L257.96 22.83L258.14 22.8L258.34 22.77L258.55 22.74L258.78 22.71L259.02 22.69L259.27 22.66L259.53 22.64L259.81 22.62L260.09 22.61L260.38 22.59L260.68 22.58L260.98 22.57L261.29 22.57L261.6 22.56L261.91 22.56L262.23 22.57L262.55 22.57ZM260.89 29.67L259.96 29.84L259.05 30.07L258.18 30.38L257.35 30.75L256.57 31.18L255.84 31.68L255.17 32.25L254.59 32.78L254.07 33.32L253.59 33.86L253.16 34.42L252.78 34.99L252.43 35.58L252.13 36.19L251.86 36.82L251.64 37.48L251.44 38.17L251.28 38.9L251.16 39.66L251.06 40.46L250.99 41.31L250.95 42.2L250.97 43.66L251.09 45.03L251.32 46.33L251.64 47.55L252.07 48.69L252.59 49.74L253.21 50.71L253.92 51.59L254.72 52.38L255.62 53.09L256.6 53.69L257.68 54.21L258.84 54.63L260.09 54.95L261.43 55.17L262.3 55.25L263.17 55.27L264.02 55.23L264.86 55.14L265.69 54.99L266.49 54.79L267.28 54.53L268.04 54.22L268.78 53.86L269.49 53.45L270.17 52.99L270.83 52.48L271.44 51.92L272.03 51.31L272.57 50.66L272.9 50.23L273.19 49.84L273.45 49.47L273.67 49.11L273.85 48.74L274.01 48.37L274.14 47.98L274.25 47.55L274.34 47.07L274.41 46.54L274.46 45.95L274.5 45.27L274.53 44.51L274.56 43.64L274.58 42.67L274.6 41.69L274.6 40.82L274.6 40.06L274.59 39.38L274.56 38.78L274.51 38.25L274.44 37.78L274.35 37.34L274.23 36.94L274.09 36.56L273.92 36.2L273.71 35.83L273.47 35.44L273.2 35.04L272.88 34.6L272.67 34.32L272.44 34.03L272.18 33.74L271.91 33.45L271.62 33.16L271.32 32.87L271.01 32.59L270.7 32.31L270.38 32.05L270.05 31.8L269.73 31.56L269.41 31.34L269.09 31.15L268.78 30.97L268.48 30.82L267.58 30.43L266.65 30.11L265.7 29.86L264.74 29.68L263.77 29.57L262.8 29.53L261.84 29.57L260.89 29.67Z" id="b1TuxxdKwG"></path><path d="M39.68 46.95C39.66 47.65 39.59 51.17 39.47 57.5L43.3 57.58L47.13 57.65C47.3 49.34 47.39 44.72 47.41 43.79C47.67 30 47.68 29.87 49.25 28.09C50.75 26.37 51.13 26.32 57.27 26.24C57.7 26.23 59.85 26.19 63.73 26.11L63.79 22.61L63.86 19.12C60.14 19.04 58.08 19 57.67 18.99C54.15 18.99 50.38 19.31 49.03 19.73C41.5 22.31 40.15 26.23 39.68 46.95Z" id="dyzfmubEc"></path><path d="M71.39 26.39C75.91 26.48 78.42 26.52 78.92 26.53C91.7 26.78 93.07 28.37 92.79 42.61C92.78 43.21 92.72 46.18 92.62 51.54C88.06 51.34 85.53 51.22 85.02 51.2C78.64 50.88 77.24 50.6 76.11 49.54C74.73 48.22 74.4 45.29 75.53 43.31C76.85 40.87 83.32 40.09 87.44 41.92C87.59 41.99 88.33 42.3 89.66 42.87L89.54 39.24L89.42 35.55C87.89 35.17 87.04 34.96 86.88 34.92C83.12 34 76.98 34.53 73.95 36.02C64.53 40.7 65.42 53.99 75.45 57.23C77.73 57.99 81.69 58.33 89.1 58.47C89.79 58.48 93.26 58.55 99.51 58.67C99.67 50.59 99.76 46.11 99.77 45.21C100.05 30.83 99.72 28.11 97.17 24.95C93.92 20.87 91.38 20.04 80.98 19.58C80.35 19.55 77.2 19.4 71.53 19.14L71.46 22.76L71.39 26.39Z" id="c8T8YrfRQ"></path><path d="M164.25 25.22C162.36 27.26 162.09 27.9 162.03 31.14C161.9 37.74 164.53 40.45 174.05 43.55C182.24 46.3 184.56 48.81 181.37 51.6C180.2 52.61 178.79 52.78 170.8 52.81C170.19 52.81 167.12 52.82 161.6 52.83L161.53 56.45L161.46 60.01C167.52 59.98 170.89 59.96 171.56 59.95C182.55 59.97 185.25 59.25 188 55.68C189.84 53.32 190.27 47.69 188.92 44.62C187.63 41.81 185.68 40.6 177.24 37.52C170.38 35.06 168.87 33.93 169.17 31.6C169.55 28.95 171.73 28.35 180.8 28.53C181.34 28.54 184.04 28.59 188.91 28.68L188.98 25.12L189.05 21.56C183.8 21.46 180.88 21.4 180.3 21.39C174.42 21.34 170.65 21.59 168.91 22.14C167.5 22.63 165.36 24.01 164.25 25.22Z" id="aqGDUpnzA"></path><path d="M294.5 39.88C294.65 40.04 295.38 40.83 296.69 42.26C295.25 43.74 294.44 44.57 294.28 44.74C291.02 48.1 288.89 52.73 288.27 57.96C288.24 58.25 288.06 59.72 287.74 62.35L291.25 62.42L294.77 62.49C295.08 60.28 295.25 59.06 295.28 58.81C295.88 54.29 298.6 49.29 301.58 47.34C303.59 46.02 303.91 45.96 305.49 46.83C309.28 48.91 312.35 55.19 312.24 60.7C312.24 60.84 312.23 61.55 312.2 62.83L315.78 62.9L319.42 62.97C319.24 60.41 319.14 58.98 319.12 58.69C318.71 53.57 316.7 48.61 313.64 45.11C313.48 44.94 312.71 44.09 311.32 42.54C312.93 40.86 313.82 39.93 314 39.74C317.26 36.25 318.99 32.59 319.66 27.81C319.69 27.56 319.87 26.34 320.18 24.13L316.67 24.06L313.22 23.99C312.71 26.31 312.43 27.6 312.37 27.86C311.52 32.18 309.94 34.74 306.5 37.27C304.36 38.84 304.17 38.9 302.59 37.9C299.56 36.03 296.96 31.7 296.22 27.54C296.17 27.28 295.94 25.98 295.52 23.64L292.01 23.58L288.5 23.51L288.88 26.88C290.79 33.57 292.67 37.9 294.5 39.88Z" id="a6X5s6L8y"></path></defs><g><g><g><use xlink:href="#baxDNeKvv" opacity="1" fill="#000000" fill-opacity="1"></use><g><use xlink:href="#baxDNeKvv" opacity="1" fill-opacity="0" stroke="#000000" stroke-width="1" stroke-opacity="0"></use></g></g><g><use xlink:href="#a3hyRBBQ0s" opacity="1" fill="#000000" fill-opacity="1"></use><g><use xlink:href="#a3hyRBBQ0s" opacity="1" fill-opacity="0" stroke="#000000" stroke-width="1" stroke-opacity="0"></use></g></g><g><use xlink:href="#b3Vx3jGNmU" opacity="1" fill="#000000" fill-opacity="1"></use><g><use xlink:href="#b3Vx3jGNmU" opacity="1" fill-opacity="0" stroke="#000000" stroke-width="1" stroke-opacity="0"></use></g></g><g><use xlink:href="#aY4TOblo" opacity="1" fill="#000000" fill-opacity="1"></use><g><use xlink:href="#aY4TOblo" opacity="1" fill-opacity="0" stroke="#000000" stroke-width="1" stroke-opacity="0"></use></g></g><g><use xlink:href="#b1TuxxdKwG" opacity="1" fill="#000000" fill-opacity="1"></use><g><use xlink:href="#b1TuxxdKwG" opacity="1" fill-opacity="0" stroke="#000000" stroke-width="1" stroke-opacity="0"></use></g></g><g><use xlink:href="#dyzfmubEc" opacity="1" fill="#000000" fill-opacity="1"></use><g><use xlink:href="#dyzfmubEc" opacity="1" fill-opacity="0" stroke="#000000" stroke-width="1" stroke-opacity="0"></use></g></g><g><use xlink:href="#c8T8YrfRQ" opacity="1" fill="#000000" fill-opacity="1"></use><g><use xlink:href="#c8T8YrfRQ" opacity="1" fill-opacity="0" stroke="#000000" stroke-width="1" stroke-opacity="0"></use></g></g><g><use xlink:href="#aqGDUpnzA" opacity="1" fill="#000000" fill-opacity="1"></use><g><use xlink:href="#aqGDUpnzA" opacity="1" fill-opacity="0" stroke="#000000" stroke-width="1" stroke-opacity="0"></use></g></g><g><use xlink:href="#a6X5s6L8y" opacity="1" fill="#000000" fill-opacity="1"></use><g><use xlink:href="#a6X5s6L8y" opacity="1" fill-opacity="0" stroke="#000000" stroke-width="1" stroke-opacity="0"></use></g></g></g></g></svg>