<?xml version="1.0" encoding="UTF-8" standalone="no"?>
<!DOCTYPE svg PUBLIC "-//W3C//DTD SVG 1.1//EN" "http://www.w3.org/Graphics/SVG/1.1/DTD/svg11.dtd">
<svg version="1.1" xmlns="http://www.w3.org/2000/svg" xmlns:xlink="http://www.w3.org/1999/xlink" preserveAspectRatio="xMidYMid meet" viewBox="-1.5 30.5 474.5 162.49999999999994" width="470" height="158"><defs><path d="M0 50L470 50L470 190L0 190L0 50Z" id="b3gK8C4a"></path><path d="M395.34 144L444 144L444 32L26 32L26 144L74.82 144" id="a7OJluDpN"></path><path d="M275.26 70.9C273.92 73.36 273.86 74.33 273.67 95.64C273.65 97.12 273.59 104.52 273.48 117.85L277.37 117.85L281.21 117.85C281.21 105.11 281.21 98.03 281.21 96.61C281.21 72.39 281.27 72.2 286.38 69.41C288.68 68.18 289.83 67.92 292.77 68.18C297.37 68.57 299.41 69.93 300.75 73.49C303.25 80.16 298.52 85.41 290.02 85.47C289.77 85.47 288.54 85.47 286.32 85.47L286.32 89.03L286.32 92.6C289.38 92.6 291.09 92.6 291.43 92.6C294.37 92.6 297.5 92.98 298.71 93.5C303.05 95.32 305.03 100.11 303.5 105.03C302.73 107.3 302.1 108.07 299.73 109.3C297.37 110.47 295.9 110.73 290.34 110.73C289.9 110.73 287.71 110.73 283.76 110.73L283.76 114.35L283.76 117.98C288.86 117.83 291.69 117.74 292.26 117.72C298.33 117.53 301.39 117.14 303.25 116.3C310.4 113.19 313.47 105.35 310.91 96.74C309.89 93.18 307.65 90.65 303.95 88.84C303.78 88.76 302.95 88.35 301.46 87.61C302.68 86.87 303.36 86.46 303.5 86.38C309.19 83.01 310.59 73.82 306.44 67.47C303.88 63.52 299.28 61.32 293.02 61.06C289.06 60.87 287.21 61.12 284.78 62.16C281.08 63.65 277.24 67.21 275.26 70.9Z" id="ekijn7cO"></path><path d="M76.46 79.58C73.45 91.11 75.56 102.63 81.89 109.63C86.87 115.13 93.77 117.85 102.97 117.85C103.27 117.85 104.76 117.85 107.44 117.85L107.44 114.29L107.44 110.73C104.83 110.73 103.39 110.73 103.1 110.73C94.15 110.73 89.11 107.81 85.59 100.5C83.61 96.48 83.48 95.7 83.48 89.68C83.48 83.66 83.61 82.88 85.59 78.87C89.11 71.55 94.15 68.64 103.1 68.64C103.39 68.64 104.83 68.64 107.44 68.64L107.44 65.07L107.44 61.51C104.49 61.55 102.85 61.57 102.52 61.58C99.78 61.58 96.07 61.97 94.28 62.42C85.4 64.62 78.69 71.1 76.46 79.58Z" id="b7HDRKMxu"></path><path d="M186.66 76.67C186.66 78.48 186.4 78.93 185.32 79.13C184.36 79.26 183.46 80.36 182.44 82.69C182.34 82.92 181.85 84.06 180.97 86.12L183.85 86.12L186.66 86.12L186.66 101.99L186.66 117.85L190.17 117.85L193.68 117.85L193.68 101.99L193.68 86.12L198.16 86.12L202.63 86.12L202.63 82.56L202.63 79C199.95 79 198.45 79 198.16 79C194.07 79 193.68 78.87 193.68 77.7C193.68 73.23 197.39 69.61 202.82 68.9C203.02 68.86 204.02 68.71 205.82 68.44L205.82 65.01L205.82 61.51C204.6 61.55 203.91 61.57 203.78 61.58C202.63 61.58 200.52 61.97 199.11 62.42C191.58 64.82 186.66 70.45 186.66 76.67Z" id="b1530Vrizo"></path><path d="M205.12 86.12L208.63 86.12L212.21 86.12C212.21 92.61 212.21 96.21 212.21 96.94C212.21 106.13 212.4 108.2 213.42 110.47C215.34 114.68 219.43 117.01 226.07 117.66C226.34 117.68 227.68 117.81 230.1 118.05L230.1 114.48L230.1 110.92C228.14 110.69 227.06 110.56 226.84 110.53C223.01 110.08 220.71 108.72 219.88 106.45C219.49 105.55 219.24 100.63 219.24 95.45C219.24 94.82 219.24 91.72 219.24 86.12L224.67 86.12L230.1 86.12L230.1 82.56L230.1 79L224.67 79L219.24 79C219.24 76.86 219.24 75.67 219.24 75.44C219.24 73.49 218.98 71.87 218.73 71.87C218.47 71.87 215.28 75.05 211.64 79C210.77 79.95 208.6 82.32 205.12 86.12Z" id="h4k5do6Hf2"></path><path d="M338.09 78.58L338.4 78.58L338.71 78.59L339.02 78.61L339.68 78.64L340.33 78.7L340.96 78.77L341.59 78.86L342.21 78.97L342.81 79.09L343.41 79.24L344 79.41L344.57 79.59L345.14 79.8L345.7 80.02L346.26 80.26L346.8 80.52L347.33 80.8L347.86 81.1L348.38 81.41L348.89 81.75L349.39 82.11L349.88 82.48L350.37 82.87L350.85 83.28L351.32 83.71L351.79 84.16L352.24 84.63L353.32 85.86L354.28 87.16L355.11 88.52L355.82 89.92L356.41 91.37L356.88 92.85L357.23 94.35L357.47 95.88L357.59 97.41L357.59 98.96L357.49 100.49L357.27 102.02L356.94 103.53L356.5 105.01L355.96 106.45L355.31 107.86L354.55 109.21L353.69 110.51L352.73 111.75L351.67 112.91L350.5 113.99L349.24 114.99L347.89 115.89L346.43 116.69L346.14 116.83L345.85 116.97L345.57 117.1L345.29 117.22L345.01 117.33L344.74 117.44L344.46 117.53L344.18 117.62L343.89 117.7L343.6 117.77L343.3 117.83L342.99 117.89L342.67 117.94L342.34 117.99L342 118.03L341.64 118.06L341.26 118.09L340.87 118.12L340.46 118.14L340.03 118.15L339.57 118.16L339.09 118.17L338.59 118.17L338.06 118.18L337.48 118.17L336.93 118.17L336.41 118.16L335.93 118.15L335.48 118.14L335.06 118.12L334.66 118.09L334.28 118.06L333.93 118.02L333.59 117.98L333.26 117.92L332.95 117.86L332.65 117.79L332.35 117.71L332.06 117.62L331.77 117.51L331.48 117.4L331.18 117.27L330.88 117.14L330.57 116.98L330.25 116.82L329.91 116.64L329.56 116.44L329.18 116.23L328.66 115.93L328.15 115.61L327.65 115.28L327.17 114.94L326.69 114.59L326.23 114.22L325.78 113.84L325.34 113.46L324.92 113.06L324.51 112.64L324.11 112.22L323.72 111.79L323.35 111.34L322.99 110.89L322.64 110.42L322.31 109.94L321.99 109.46L321.69 108.96L321.4 108.45L321.13 107.93L320.87 107.4L320.62 106.85L320.39 106.3L320.17 105.74L320.01 105.26L319.85 104.75L319.7 104.23L319.57 103.7L319.45 103.15L319.34 102.59L319.24 102.03L319.16 101.45L319.09 100.87L319.03 100.28L318.98 99.7L318.95 99.1L318.92 98.51L318.91 97.92L318.92 97.34L318.94 96.76L318.96 96.18L319.01 95.62L319.06 95.06L319.13 94.51L319.21 93.98L319.31 93.46L319.41 92.95L319.54 92.47L319.75 91.78L320.01 91.08L320.31 90.38L320.65 89.68L321.03 88.98L321.45 88.29L321.9 87.6L322.38 86.92L322.88 86.25L323.42 85.59L323.98 84.95L324.57 84.32L325.17 83.72L325.8 83.14L326.43 82.58L327.09 82.04L327.75 81.54L328.43 81.07L329.11 80.63L329.8 80.22L330.49 79.85L331.19 79.52L331.88 79.24L332.57 79L332.71 78.96L332.88 78.92L333.06 78.88L333.25 78.85L333.47 78.81L333.69 78.78L333.93 78.75L334.18 78.72L334.45 78.7L334.72 78.67L335 78.65L335.29 78.63L335.59 78.62L335.89 78.6L336.2 78.59L336.51 78.58L336.82 78.57L337.14 78.57L337.46 78.57L337.78 78.57L338.09 78.58ZM335.94 85.7L335.01 85.88L334.11 86.14L333.25 86.46L332.42 86.84L331.65 87.3L330.93 87.81L330.27 88.39L329.71 88.93L329.19 89.48L328.73 90.03L328.31 90.6L327.93 91.18L327.6 91.77L327.31 92.39L327.06 93.02L326.84 93.69L326.66 94.38L326.52 95.11L326.4 95.88L326.32 96.68L326.27 97.53L326.24 98.42L326.29 99.88L326.45 101.25L326.7 102.54L327.05 103.75L327.49 104.88L328.03 105.93L328.67 106.88L329.4 107.75L330.22 108.53L331.13 109.21L332.13 109.8L333.21 110.3L334.38 110.69L335.64 110.99L336.98 111.18L337.85 111.24L338.72 111.25L339.57 111.19L340.41 111.08L341.23 110.92L342.04 110.7L342.82 110.43L343.57 110.11L344.3 109.73L345.01 109.31L345.68 108.83L346.32 108.31L346.93 107.74L347.5 107.12L348.03 106.45L348.35 106.02L348.64 105.62L348.88 105.25L349.1 104.88L349.28 104.52L349.43 104.14L349.55 103.74L349.65 103.31L349.73 102.84L349.78 102.31L349.83 101.71L349.85 101.03L349.87 100.27L349.88 99.4L349.88 98.42L349.88 97.45L349.87 96.58L349.85 95.82L349.83 95.14L349.78 94.54L349.73 94.01L349.65 93.54L349.55 93.11L349.43 92.71L349.28 92.33L349.1 91.97L348.88 91.6L348.64 91.23L348.35 90.83L348.03 90.39L347.81 90.12L347.57 89.84L347.31 89.55L347.03 89.26L346.74 88.98L346.44 88.69L346.12 88.42L345.8 88.15L345.47 87.89L345.14 87.65L344.81 87.42L344.49 87.21L344.17 87.01L343.86 86.85L343.56 86.7L342.65 86.33L341.71 86.02L340.76 85.79L339.79 85.63L338.82 85.54L337.85 85.52L336.89 85.58L335.94 85.7Z" id="d1ZUAVioJR"></path><path d="M115.11 107.3C115.11 108 115.11 111.52 115.11 117.85L118.94 117.85L122.77 117.85C122.77 109.54 122.77 104.92 122.77 103.99C122.77 90.2 122.77 90.07 124.31 88.26C125.78 86.51 126.16 86.44 132.29 86.25C132.72 86.23 134.87 86.15 138.74 85.99L138.74 82.49L138.74 79C135.03 79 132.96 79 132.55 79C129.03 79.06 125.26 79.45 123.92 79.9C116.45 82.62 115.17 86.57 115.11 107.3Z" id="aBUnNlIk"></path><path d="M146.41 86.12C150.93 86.12 153.45 86.12 153.95 86.12C166.73 86.12 168.13 87.67 168.13 101.92C168.13 102.52 168.13 105.5 168.13 110.86C163.57 110.74 161.04 110.68 160.53 110.66C154.14 110.47 152.73 110.21 151.59 109.17C150.18 107.88 149.8 104.96 150.88 102.96C152.16 100.5 158.61 99.59 162.76 101.34C162.91 101.4 163.66 101.7 165 102.25L164.81 98.62L164.62 94.93C163.08 94.58 162.23 94.38 162.06 94.34C158.29 93.5 152.16 94.15 149.16 95.7C139.83 100.56 140.98 113.84 151.07 116.88C153.37 117.59 157.33 117.85 164.75 117.85C165.44 117.85 168.91 117.85 175.16 117.85C175.16 109.77 175.16 105.28 175.16 104.38C175.16 90.01 174.77 87.29 172.16 84.18C168.83 80.16 166.28 79.39 155.87 79.13C155.23 79.11 152.08 79.02 146.41 78.87L146.41 82.49L146.41 86.12Z" id="b1TCZ1BBwE"></path><path d="M239.23 83.14C237.38 85.21 237.13 85.86 237.13 89.1C237.13 95.7 239.81 98.36 249.39 101.27C257.63 103.86 260 106.32 256.87 109.17C255.72 110.21 254.31 110.4 246.33 110.6C245.71 110.61 242.65 110.68 237.13 110.79L237.13 114.42L237.13 117.98C243.18 117.83 246.55 117.74 247.22 117.72C258.21 117.53 260.89 116.75 263.57 113.12C265.36 110.73 265.68 105.09 264.28 102.05C262.93 99.27 260.95 98.1 252.46 95.19C245.56 92.86 244.03 91.75 244.28 89.42C244.6 86.77 246.77 86.12 255.84 86.12C256.38 86.12 259.09 86.12 263.96 86.12L263.96 82.56L263.96 79C258.71 79 255.79 79 255.2 79C249.33 79.06 245.56 79.39 243.83 79.97C242.43 80.49 240.32 81.91 239.23 83.14Z" id="a6OyCly5uV"></path><path d="M369.75 95.25C369.9 95.41 370.64 96.18 371.98 97.58C370.57 99.1 369.78 99.94 369.62 100.11C366.43 103.54 364.38 108.2 363.87 113.45C363.84 113.74 363.69 115.21 363.42 117.85L366.94 117.85L370.45 117.85C370.72 115.64 370.87 114.41 370.9 114.16C371.41 109.63 374.03 104.58 376.97 102.57C378.95 101.21 379.27 101.14 380.86 101.99C384.7 103.99 387.89 110.21 387.89 115.71C387.89 115.86 387.89 116.57 387.89 117.85L391.47 117.85L395.11 117.85C394.88 115.29 394.75 113.86 394.73 113.58C394.22 108.46 392.11 103.54 388.98 100.11C388.82 99.94 388.03 99.1 386.61 97.58C388.19 95.87 389.06 94.92 389.23 94.73C392.43 91.17 394.09 87.48 394.66 82.69C394.69 82.44 394.84 81.21 395.11 79L391.6 79L388.15 79C387.69 81.33 387.43 82.62 387.38 82.88C386.61 87.22 385.08 89.81 381.7 92.4C379.59 94.02 379.4 94.09 377.8 93.11C374.73 91.3 372.05 87.03 371.22 82.88C371.17 82.62 370.91 81.33 370.45 79L366.94 79L363.42 79L363.87 82.36C365.92 89.01 367.88 93.31 369.75 95.25Z" id="b10OlW3kbJ"></path><path d="M75 160L75 128L395 128L395 160L75 160ZM317.47 139.68L316.46 140.47L315.68 141.48L315.18 142.67L315 144L315.18 145.33L315.68 146.52L316.46 147.53L317.47 148.32L318.67 148.82L320 149L321.33 148.82L322.52 148.32L323.53 147.53L324.31 146.52L324.82 145.33L325 144L324.82 142.67L324.31 141.48L323.53 140.47L322.52 139.68L321.33 139.18L320 139L318.67 139.18L317.47 139.68ZM249.47 139.68L248.46 140.47L247.68 141.48L247.18 142.67L247 144L247.18 145.33L247.68 146.52L248.46 147.53L249.47 148.32L250.67 148.82L252 149L253.33 148.82L254.52 148.32L255.53 147.53L256.31 146.52L256.82 145.33L257 144L256.82 142.67L256.31 141.48L255.53 140.47L254.52 139.68L253.33 139.18L252 139L250.67 139.18L249.47 139.68ZM181.47 139.68L180.46 140.47L179.68 141.48L179.18 142.67L179 144L179.18 145.33L179.68 146.52L180.46 147.53L181.47 148.32L182.67 148.82L184 149L185.33 148.82L186.52 148.32L187.53 147.53L188.31 146.52L188.82 145.33L189 144L188.82 142.67L188.31 141.48L187.53 140.47L186.52 139.68L185.33 139.18L184 139L182.67 139.18L181.47 139.68ZM113.47 139.68L112.46 140.47L111.68 141.48L111.18 142.67L111 144L111.18 145.33L111.68 146.52L112.46 147.53L113.47 148.32L114.67 148.82L116 149L117.33 148.82L118.52 148.32L119.53 147.53L120.31 146.52L120.82 145.33L121 144L120.82 142.67L120.31 141.48L119.53 140.47L118.52 139.68L117.33 139.18L116 139L114.67 139.18L113.47 139.68ZM147.47 139.68L146.46 140.47L145.68 141.48L145.18 142.67L145 144L145.18 145.33L145.68 146.52L146.46 147.53L147.47 148.32L148.67 148.82L150 149L151.33 148.82L152.52 148.32L153.53 147.53L154.31 146.52L154.82 145.33L155 144L154.82 142.67L154.31 141.48L153.53 140.47L152.52 139.68L151.33 139.18L150 139L148.67 139.18L147.47 139.68ZM215.47 139.68L214.46 140.47L213.68 141.48L213.18 142.67L213 144L213.18 145.33L213.68 146.52L214.46 147.53L215.47 148.32L216.67 148.82L218 149L219.33 148.82L220.52 148.32L221.53 147.53L222.31 146.52L222.82 145.33L223 144L222.82 142.67L222.31 141.48L221.53 140.47L220.52 139.68L219.33 139.18L218 139L216.67 139.18L215.47 139.68ZM283.47 139.68L282.46 140.47L281.68 141.48L281.18 142.67L281 144L281.18 145.33L281.68 146.52L282.46 147.53L283.47 148.32L284.67 148.82L286 149L287.33 148.82L288.52 148.32L289.53 147.53L290.31 146.52L290.82 145.33L291 144L290.82 142.67L290.31 141.48L289.53 140.47L288.52 139.68L287.33 139.18L286 139L284.67 139.18L283.47 139.68ZM351.47 139.68L350.46 140.47L349.68 141.48L349.18 142.67L349 144L349.18 145.33L349.68 146.52L350.46 147.53L351.47 148.32L352.67 148.82L354 149L355.33 148.82L356.52 148.32L357.53 147.53L358.31 146.52L358.82 145.33L359 144L358.82 142.67L358.31 141.48L357.53 140.47L356.52 139.68L355.33 139.18L354 139L352.67 139.18L351.47 139.68Z" id="a3ei6aYWE"></path></defs><g><g><use xlink:href="#b3gK8C4a" opacity="1" fill="#000000" fill-opacity="0"></use><g><use xlink:href="#b3gK8C4a" opacity="1" fill-opacity="0" stroke="#000000" stroke-width="3" stroke-opacity="1"></use></g></g><g><g><use xlink:href="#a7OJluDpN" opacity="1" fill-opacity="0" stroke="#000000" stroke-width="3" stroke-opacity="1"></use></g></g><g><use xlink:href="#ekijn7cO" opacity="1" fill="#000000" fill-opacity="1"></use><g><use xlink:href="#ekijn7cO" opacity="1" fill-opacity="0" stroke="#000000" stroke-width="1" stroke-opacity="0"></use></g></g><g><use xlink:href="#b7HDRKMxu" opacity="1" fill="#000000" fill-opacity="1"></use><g><use xlink:href="#b7HDRKMxu" opacity="1" fill-opacity="0" stroke="#000000" stroke-width="1" stroke-opacity="0"></use></g></g><g><use xlink:href="#b1530Vrizo" opacity="1" fill="#000000" fill-opacity="1"></use><g><use xlink:href="#b1530Vrizo" opacity="1" fill-opacity="0" stroke="#000000" stroke-width="1" stroke-opacity="0"></use></g></g><g><use xlink:href="#h4k5do6Hf2" opacity="1" fill="#000000" fill-opacity="1"></use><g><use xlink:href="#h4k5do6Hf2" opacity="1" fill-opacity="0" stroke="#000000" stroke-width="1" stroke-opacity="0"></use></g></g><g><use xlink:href="#d1ZUAVioJR" opacity="1" fill="#000000" fill-opacity="1"></use><g><use xlink:href="#d1ZUAVioJR" opacity="1" fill-opacity="0" stroke="#000000" stroke-width="1" stroke-opacity="0"></use></g></g><g><use xlink:href="#aBUnNlIk" opacity="1" fill="#000000" fill-opacity="1"></use><g><use xlink:href="#aBUnNlIk" opacity="1" fill-opacity="0" stroke="#000000" stroke-width="1" stroke-opacity="0"></use></g></g><g><use xlink:href="#b1TCZ1BBwE" opacity="1" fill="#000000" fill-opacity="1"></use><g><use xlink:href="#b1TCZ1BBwE" opacity="1" fill-opacity="0" stroke="#000000" stroke-width="1" stroke-opacity="0"></use></g></g><g><use xlink:href="#a6OyCly5uV" opacity="1" fill="#000000" fill-opacity="1"></use><g><use xlink:href="#a6OyCly5uV" opacity="1" fill-opacity="0" stroke="#000000" stroke-width="1" stroke-opacity="0"></use></g></g><g><use xlink:href="#b10OlW3kbJ" opacity="1" fill="#000000" fill-opacity="1"></use><g><use xlink:href="#b10OlW3kbJ" opacity="1" fill-opacity="0" stroke="#000000" stroke-width="1" stroke-opacity="0"></use></g></g><g><use xlink:href="#a3ei6aYWE" opacity="1" fill="#000000" fill-opacity="1"></use></g></g></svg>